<svg id="Capa_1" enable-background="new 0 0 512 512" height="512" viewBox="0 0 512 512" width="512" xmlns="http://www.w3.org/2000/svg"><g><path d="m476.007 75c0-20.033-7.801-38.867-21.967-53.033-14.165-14.166-33-21.967-53.033-21.967s-38.867 7.801-53.033 21.967l-46.163 46.163c-17.652-14.122-43.553-13.016-59.903 3.334-8.5 8.5-13.181 19.8-13.181 31.82s4.681 23.321 13.181 31.82l3.536 3.536-124.957 124.957c-14.198 14.198-22.639 32.621-24.148 52.432l-17.065 17.065c-8.5 8.499-13.181 19.8-13.181 31.82 0 7.041 1.618 13.831 4.657 19.96l-28.51 52.27c-8.641 15.841-8.3 34.561.911 50.077s25.483 24.779 43.526 24.779 34.315-9.263 43.526-24.779 9.552-34.236.911-50.077l-15.008-27.514c10.123-1.115 19.501-5.59 26.807-12.896l17.064-17.064c19.812-1.51 38.235-9.95 52.433-24.148l124.957-124.957 3.536 3.536c8.773 8.772 20.296 13.158 31.82 13.158 11.523 0 23.047-4.386 31.82-13.159 8.5-8.5 13.18-19.8 13.18-31.82 0-10.337-3.47-20.136-9.845-28.085l46.162-46.162c14.166-14.166 21.967-33 21.967-53.033zm-371.601 396.907c-3.807 6.414-10.27 10.093-17.729 10.093s-13.921-3.679-17.729-10.093-3.943-13.849-.371-20.398l18.1-33.184 18.101 33.184c3.571 6.549 3.437 13.983-.372 20.398zm86.791-137.599c-10.064 10.064-23.445 15.606-37.678 15.606-3.978 0-7.793 1.581-10.606 4.394l-21.213 21.213c-5.849 5.849-15.365 5.849-21.214 0-5.848-5.849-5.848-15.365 0-21.213l21.213-21.213c2.813-2.813 4.394-6.628 4.394-10.606 0-13.131 4.728-25.531 13.362-35.277l17.599 17.599c2.929 2.929 6.768 4.394 10.606 4.394s7.678-1.464 10.606-4.394c5.858-5.858 5.858-15.355 0-21.213l-17.678-17.678 21.213-21.213 17.678 17.678c2.929 2.929 6.768 4.394 10.606 4.394s7.678-1.464 10.606-4.394c5.858-5.858 5.858-15.355 0-21.213l-17.678-17.678 21.214-21.214 17.678 17.678c2.929 2.929 6.768 4.394 10.606 4.394s7.678-1.464 10.606-4.394c5.858-5.858 5.858-15.355 0-21.213l-17.678-17.678 21.213-21.213 49.497 49.497zm192.133-121.422c-5.849 5.849-15.365 5.849-21.214 0l-98.995-98.995c-2.833-2.833-4.394-6.6-4.394-10.607 0-4.006 1.561-7.773 4.394-10.606 5.849-5.847 15.365-5.848 21.213 0l98.995 98.995c5.849 5.848 5.849 15.365.001 21.213zm49.497-106.066-45.962 45.962-63.639-63.64 45.961-45.962c17.546-17.545 46.095-17.544 63.64 0 8.499 8.5 13.18 19.8 13.18 31.82s-4.681 23.32-13.18 31.82z"/></g></svg>